<?xml version="1.0" encoding="UTF-8" standalone="no"?>
<!DOCTYPE svg PUBLIC "-//W3C//DTD SVG 1.1//EN" "http://www.w3.org/Graphics/SVG/1.1/DTD/svg11.dtd">
<svg xmlns="http://www.w3.org/2000/svg" version="1.1" viewBox="0.00 0.00 383.00 383.00">
<g stroke-width="2.00" fill="none" stroke-linecap="butt">
<path stroke="#b9ab33" vector-effect="non-scaling-stroke" d="
  M 117.39 213.68
  Q 119.32 216.94 123.20 219.49
  Q 123.38 219.61 123.52 219.45
  Q 123.64 219.32 123.40 219.18"
/>
<path stroke="#b9ab33" vector-effect="non-scaling-stroke" d="
  M 131.64 225.58
  Q 138.97 231.29 147.08 236.60
  Q 147.17 236.65 151.57 239.78
  C 158.60 244.77 166.11 245.78 174.54 245.88"
/>
<path stroke="#b9ab33" vector-effect="non-scaling-stroke" d="
  M 180.92 245.67
  L 186.83 244.86
  Q 187.36 244.79 187.65 244.34
  Q 188.68 242.78 190.17 241.80"
/>
<path stroke="#b9ab33" vector-effect="non-scaling-stroke" d="
  M 190.01 233.12
  L 185.15 229.40
  A 1.66 1.58 6.7 0 1 184.71 228.87
  Q 182.93 225.33 179.69 224.88"
/>
<path stroke="#b9ab33" vector-effect="non-scaling-stroke" d="
  M 173.73 205.59
  Q 177.36 204.92 180.11 206.36
  Q 184.05 208.42 188.73 213.12"
/>
<path stroke="#b9ab33" vector-effect="non-scaling-stroke" d="
  M 200.96 219.22
  Q 204.86 221.36 209.51 222.26
  Q 220.11 224.33 230.56 227.08
  Q 237.35 228.86 243.97 225.89
  C 252.50 222.06 258.60 219.94 264.36 214.58
  C 265.73 213.30 265.57 212.32 265.80 210.61
  C 266.32 206.76 268.54 204.40 269.59 200.95
  C 269.92 199.86 270.84 199.75 270.95 198.31
  Q 270.99 197.84 271.33 197.52
  Q 271.95 196.95 272.82 197.20"
/>
</g>
<path fill="#8cc540" d="
  M 117.39 213.68
  Q 119.32 216.94 123.20 219.49
  Q 123.38 219.61 123.52 219.45
  Q 123.64 219.32 123.40 219.18
  Q 123.94 220.26 124.44 220.81
  Q 127.54 224.24 131.64 225.58
  Q 138.97 231.29 147.08 236.60
  Q 147.17 236.65 151.57 239.78
  C 158.60 244.77 166.11 245.78 174.54 245.88
  Q 176.85 250.46 180.92 245.67
  L 186.83 244.86
  Q 187.36 244.79 187.65 244.34
  Q 188.68 242.78 190.17 241.80
  L 190.59 244.00
  A 1.39 1.38 -18.2 0 0 192.56 244.99
  C 195.93 243.36 197.21 240.61 195.25 237.18
  Q 193.29 233.78 190.01 233.12
  L 185.15 229.40
  A 1.66 1.58 6.7 0 1 184.71 228.87
  Q 182.93 225.33 179.69 224.88
  C 178.35 222.01 176.44 219.42 175.64 216.44
  Q 174.23 211.15 173.73 205.59
  Q 177.36 204.92 180.11 206.36
  Q 184.05 208.42 188.73 213.12
  Q 190.13 214.65 192.37 216.11
  Q 195.55 218.20 198.98 219.86
  Q 200.05 220.37 200.96 219.22
  Q 204.86 221.36 209.51 222.26
  Q 220.11 224.33 230.56 227.08
  Q 237.35 228.86 243.97 225.89
  C 252.50 222.06 258.60 219.94 264.36 214.58
  C 265.73 213.30 265.57 212.32 265.80 210.61
  C 266.32 206.76 268.54 204.40 269.59 200.95
  C 269.92 199.86 270.84 199.75 270.95 198.31
  Q 270.99 197.84 271.33 197.52
  Q 271.95 196.95 272.82 197.20
  C 271.60 202.99 268.69 208.07 266.89 213.80
  A 0.33 0.32 3.7 0 0 267.26 214.22
  Q 268.09 214.06 268.95 213.42
  Q 303.80 187.50 316.25 144.98
  C 319.41 134.18 318.83 122.89 316.92 111.76
  C 313.70 93.03 300.53 76.33 285.24 66.30
  C 277.30 61.08 267.73 59.13 257.91 58.26
  C 236.96 56.42 215.44 63.97 200.09 78.01
  A 2.78 2.77 -51.0 0 1 196.82 78.36
  C 192.23 75.69 188.83 71.60 184.09 68.81
  C 178.09 65.29 172.41 60.59 166.71 57.77
  C 143.00 46.04 111.64 41.29 88.60 57.75
  C 70.19 70.90 60.64 98.16 62.31 120.12
  C 62.76 126.15 62.97 132.71 64.38 138.57
  C 67.60 151.94 72.45 164.53 79.85 176.18
  Q 83.99 182.71 88.36 189.07
  Q 88.50 189.26 88.30 189.41
  L 88.29 189.41
  A 0.24 0.24 0.0 0 1 87.95 189.37
  Q 73.33 171.36 61.01 151.72
  Q 54.59 141.49 51.67 134.10
  C 43.80 114.11 42.18 89.69 51.51 69.76
  C 60.10 51.42 75.25 39.27 92.97 30.24
  C 116.96 18.02 147.81 20.93 171.66 31.76
  C 180.96 35.98 190.36 40.95 198.63 47.38
  C 203.05 50.81 207.87 45.24 211.47 42.99
  C 227.02 33.29 243.94 27.09 262.25 27.14
  Q 278.04 27.17 293.24 31.33
  C 309.16 35.68 321.94 44.75 332.78 57.49
  C 352.14 80.26 354.23 107.97 348.72 136.76
  Q 347.37 143.84 345.50 149.37
  C 331.56 190.74 302.77 221.53 266.79 246.04
  Q 253.05 255.39 242.66 260.64
  Q 212.77 275.74 179.00 271.00
  C 161.34 268.52 147.06 254.93 135.57 242.75
  C 129.73 236.56 122.59 231.73 115.66 226.85
  C 111.75 224.09 106.74 222.54 103.57 218.96
  A 1.71 1.71 0.0 0 1 103.95 216.37
  C 108.48 213.60 111.22 215.21 115.73 216.12
  A 0.88 0.88 0.0 0 0 116.59 215.82
  Q 117.28 214.99 117.39 213.68
  Z"
/>
<path fill="#e69126" d="
  M 146.92 109.09
  C 139.01 106.35 128.77 105.03 126.72 95.04
  C 126.19 92.44 127.09 87.29 130.75 87.56
  C 135.56 87.90 141.60 89.24 146.00 86.90
  C 153.42 82.95 158.75 83.45 167.15 83.45
  A 2.80 2.80 0.0 0 0 169.81 81.52
  C 171.14 77.44 172.15 74.25 175.65 71.44
  Q 176.47 70.78 176.45 71.84
  Q 176.17 83.04 180.33 92.95
  Q 184.99 104.04 189.63 115.13
  C 190.84 118.02 189.08 118.72 186.75 120.08
  Q 171.64 128.92 154.77 132.84
  A 1.13 1.13 0.0 0 1 153.39 131.89
  Q 152.37 124.22 152.50 116.60
  C 152.57 112.48 150.53 110.34 146.92 109.09
  Z"
/>
<path fill="#e69126" d="
  M 272.82 197.20
  Q 271.95 196.95 271.33 197.52
  Q 270.99 197.84 270.95 198.31
  C 270.84 199.75 269.92 199.86 269.59 200.95
  C 268.54 204.40 266.32 206.76 265.80 210.61
  C 265.57 212.32 265.73 213.30 264.36 214.58
  C 258.60 219.94 252.50 222.06 243.97 225.89
  Q 237.35 228.86 230.56 227.08
  Q 220.11 224.33 209.51 222.26
  Q 204.86 221.36 200.96 219.22
  Q 199.84 206.65 189.59 198.24
  A 1.20 1.19 -61.1 0 0 187.70 198.79
  C 186.53 202.28 188.13 209.03 188.73 213.12
  Q 184.05 208.42 180.11 206.36
  Q 177.36 204.92 173.73 205.59
  C 168.26 192.64 162.35 180.02 156.86 167.13
  Q 154.98 162.72 153.77 155.79
  C 152.91 150.84 153.49 145.66 153.60 140.53
  A 2.31 2.31 0.0 0 1 155.25 138.36
  C 163.73 135.86 172.84 133.76 180.50 129.88
  Q 185.76 127.21 190.77 124.09
  Q 193.13 122.62 195.40 124.31
  Q 200.83 128.33 204.80 133.66
  C 207.87 137.78 210.43 144.59 213.72 149.95
  Q 215.54 152.91 218.72 156.17
  Q 229.09 166.77 238.54 178.20
  C 245.45 186.58 249.85 195.09 254.53 204.26
  Q 255.27 205.71 256.10 206.45
  A 1.29 1.28 -49.3 0 0 257.94 206.31
  C 270.68 190.97 265.63 176.44 260.49 159.72
  C 258.86 154.44 257.75 145.58 263.26 142.26
  A 0.69 0.69 0.0 0 1 264.28 142.70
  C 265.88 149.68 267.33 156.29 269.70 163.31
  C 271.98 170.10 274.29 176.79 274.81 184.00
  Q 275.05 187.20 272.82 197.20
  Z"
/>
<path fill="#e69126" d="
  M 174.54 245.88
  C 166.11 245.78 158.60 244.77 151.57 239.78
  Q 147.17 236.65 147.08 236.60
  Q 138.97 231.29 131.64 225.58
  C 132.27 218.06 129.92 211.29 127.51 204.37
  A 0.62 0.61 -38.1 0 0 126.41 204.24
  Q 125.29 205.99 124.96 208.24
  Q 124.15 213.82 123.40 219.18
  Q 123.64 219.32 123.52 219.45
  Q 123.38 219.61 123.20 219.49
  Q 119.32 216.94 117.39 213.68
  Q 117.85 206.38 117.42 203.75
  C 116.12 195.70 114.94 187.86 117.48 179.89
  C 119.04 174.99 120.65 166.60 117.57 161.89
  C 115.94 159.39 112.10 158.22 109.30 156.90
  C 106.08 155.39 105.00 152.45 104.12 149.26
  C 103.35 146.44 104.64 145.64 106.54 144.01
  C 111.89 139.41 115.06 136.91 121.75 136.21
  C 124.13 135.96 125.97 132.82 127.52 131.36
  A 0.85 0.85 0.0 0 1 128.95 131.91
  C 129.52 139.58 134.19 144.17 137.95 150.82
  C 145.20 163.63 153.47 176.71 159.65 189.28
  C 169.04 208.37 175.81 224.46 174.54 245.88
  Z"
/>
<path fill="#e69126" d="
  M 152.20 142.07
  L 148.76 151.38
  A 1.15 1.15 0.0 0 1 146.60 151.36
  L 145.21 147.35
  A 1.15 1.15 0.0 0 1 145.36 146.31
  L 149.07 141.12
  A 1.15 1.15 0.0 0 1 149.89 140.64
  L 151.00 140.53
  A 1.15 1.15 0.0 0 1 152.20 142.07
  Z"
/>
<path fill="#e69126" d="
  M 179.69 224.88
  Q 182.93 225.33 184.71 228.87
  A 1.66 1.58 6.7 0 0 185.15 229.40
  L 190.01 233.12
  Q 188.85 237.90 190.17 241.80
  Q 188.68 242.78 187.65 244.34
  Q 187.36 244.79 186.83 244.86
  L 180.92 245.67
  Q 181.63 235.10 179.69 224.88
  Z"
/>
<path fill="#8cc540" d="
  M 121.94 244.83
  Q 115.25 241.44 97.70 235.84
  C 95.33 235.09 93.08 233.36 95.33 230.85
  C 101.33 224.13 127.73 244.64 132.57 248.77
  Q 133.28 249.38 132.39 249.10
  Q 127.05 247.42 121.94 244.83
  Z"
/>
<path fill="#8cc540" d="
  M 124.35 251.13
  Q 126.33 251.86 124.23 251.63
  C 118.52 250.99 113.45 249.83 107.21 249.07
  Q 99.90 248.17 92.52 245.22
  A 1.16 1.16 0.0 0 1 92.32 243.17
  L 93.16 242.62
  Q 95.00 241.41 97.11 242.05
  Q 110.85 246.20 124.35 251.13
  Z"
/>
<path fill="#8cc540" d="
  M 52.01 314.22
  L 59.63 292.74
  A 2.33 2.33 0.0 0 1 61.78 291.19
  L 73.29 291.02
  A 2.24 2.23 -10.0 0 1 75.43 292.51
  L 83.14 314.42
  Q 83.44 315.29 82.52 315.26
  L 75.66 314.99
  Q 75.11 314.97 74.69 314.60
  C 73.06 313.19 71.64 310.69 69.22 310.57
  C 66.00 310.42 63.01 310.90 61.39 314.06
  A 2.06 2.05 13.1 0 1 59.62 315.16
  L 52.79 315.30
  Q 51.62 315.32 52.01 314.22
  Z
  M 68.92 301.11
  A 0.88 0.88 0.0 0 0 68.59 300.58
  L 67.76 299.93
  A 0.88 0.88 0.0 0 0 66.35 300.52
  L 65.72 305.21
  A 0.88 0.88 0.0 0 0 66.43 306.19
  L 68.74 306.63
  A 0.88 0.88 0.0 0 0 69.77 305.61
  L 68.92 301.11
  Z"
/>
<path fill="#8cc540" d="
  M 102.02 302.26
  C 102.07 305.72 102.86 311.31 101.58 314.46
  Q 101.34 315.07 100.67 315.07
  L 93.64 315.06
  A 1.65 1.64 -89.7 0 1 92.00 313.39
  L 92.18 303.40
  A 1.67 1.66 -82.9 0 0 90.91 301.75
  L 87.44 300.93
  Q 86.82 300.78 86.74 300.14
  C 86.44 297.64 84.35 291.52 89.25 291.33
  Q 97.40 291.01 105.71 291.31
  A 1.99 1.98 -88.5 0 1 107.62 293.33
  L 107.53 299.96
  A 1.35 1.34 -1.9 0 1 106.29 301.27
  L 102.66 301.56
  A 0.69 0.69 0.0 0 0 102.02 302.26
  Z"
/>
<path fill="#8cc540" d="
  M 135.86 303.18
  A 12.18 12.18 0.0 0 1 123.68 315.36
  A 12.18 12.18 0.0 0 1 111.50 303.18
  A 12.18 12.18 0.0 0 1 123.68 291.00
  A 12.18 12.18 0.0 0 1 135.86 303.18
  Z
  M 124.2595 305.7884
  A 3.39 3.04 77.4 0 0 126.4868 301.8168
  A 3.39 3.04 77.4 0 0 122.7805 299.1716
  A 3.39 3.04 77.4 0 0 120.5532 303.1432
  A 3.39 3.04 77.4 0 0 124.2595 305.7884
  Z"
/>
<path fill="#8cc540" d="
  M 153.22 293.72
  A 2.53 2.53 0.0 0 1 155.74 291.18
  L 164.69 291.15
  A 13.38 11.32 -0.2 0 1 178.11 302.43
  L 178.11 303.79
  A 13.38 11.32 -0.2 0 1 164.77 315.15
  L 155.82 315.18
  A 2.53 2.53 0.0 0 1 153.28 312.66
  L 153.22 293.72
  Z
  M 163.34 301.18
  L 163.70 305.63
  A 1.19 1.19 0.0 0 0 164.99 306.72
  L 165.49 306.67
  A 3.56 3.29 -4.7 0 0 168.77 303.10
  L 168.75 302.84
  A 3.56 3.29 -4.7 0 0 164.93 299.86
  L 164.42 299.90
  A 1.19 1.19 0.0 0 0 163.34 301.18
  Z"
/>
<path fill="#8cc540" d="
  M 194.28 297.66
  C 193.36 299.54 194.38 300.39 196.13 300.61
  Q 197.86 300.82 199.13 300.95
  Q 200.73 301.11 200.73 302.71
  L 200.74 304.27
  A 1.74 1.73 -2.3 0 1 199.13 306.01
  C 197.73 306.11 194.18 305.86 194.14 308.16
  A 1.62 1.62 0.0 0 0 195.72 309.80
  L 201.90 309.96
  Q 203.94 310.02 203.64 312.03
  L 203.50 312.95
  Q 203.19 314.98 201.12 315.02
  Q 194.87 315.12 188.25 315.17
  Q 186.65 315.19 185.62 314.96
  A 1.98 1.97 5.8 0 1 184.05 313.04
  L 183.93 292.42
  A 1.17 1.17 0.0 0 1 185.08 291.24
  L 201.71 290.93
  Q 203.78 290.89 203.72 292.96
  L 203.68 294.26
  Q 203.63 296.17 201.73 296.37
  L 195.12 297.07
  Q 194.54 297.13 194.28 297.66
  Z"
/>
<path fill="#8cc540" d="
  M 313.82 303.32
  A 12.10 12.10 0.0 0 1 301.72 315.42
  A 12.10 12.10 0.0 0 1 289.62 303.32
  A 12.10 12.10 0.0 0 1 301.72 291.22
  A 12.10 12.10 0.0 0 1 313.82 303.32
  Z
  M 305.3010 302.7746
  A 3.34 3.11 4.2 0 0 302.1978 299.4284
  A 3.34 3.11 4.2 0 0 298.6390 302.2854
  A 3.34 3.11 4.2 0 0 301.7422 305.6316
  A 3.34 3.11 4.2 0 0 305.3010 302.7746
  Z"
/>
<path fill="#8cc540" d="
  M 218.56 314.20
  C 219.61 306.74 223.76 300.40 225.18 293.02
  A 2.18 2.18 0.0 0 1 227.31 291.25
  L 239.07 291.19
  A 2.85 2.84 -9.5 0 1 241.78 293.11
  L 248.88 313.77
  Q 249.33 315.05 247.97 315.08
  L 241.97 315.21
  Q 240.56 315.24 239.88 314.01
  C 238.13 310.89 235.10 310.93 231.92 310.79
  C 229.77 310.70 228.60 311.76 227.61 313.45
  A 1.62 1.61 -84.8 0 1 226.79 314.14
  Q 223.15 315.50 219.26 315.09
  A 0.79 0.78 -83.3 0 1 218.56 314.20
  Z
  M 234.79 306.16
  A 1.15 1.14 81.4 0 0 235.84 304.72
  L 234.94 301.30
  A 0.97 0.96 8.6 0 0 234.52 300.74
  Q 233.87 300.33 233.21 300.66
  Q 232.63 300.95 232.34 301.85
  Q 231.80 303.54 231.88 304.80
  Q 231.96 306.29 233.45 306.22
  L 234.79 306.16
  Z"
/>
<path fill="#8cc540" d="
  M 273.07 305.20
  C 272.70 305.02 272.29 304.95 271.87 305.10
  C 268.65 306.23 268.55 303.86 266.21 303.75
  C 264.58 303.67 264.23 304.93 264.38 306.35
  C 264.67 308.99 265.08 314.95 261.75 315.28
  Q 258.33 315.62 255.47 315.02
  A 1.29 1.29 0.0 0 1 254.44 313.77
  L 254.20 292.71
  A 1.48 1.47 -1.6 0 1 255.62 291.22
  C 259.98 291.04 265.35 291.33 267.85 295.40
  A 1.37 1.36 50.1 0 0 270.02 295.60
  L 273.14 292.15
  A 1.45 1.42 15.5 0 1 273.93 291.71
  Q 278.15 290.96 282.39 291.80
  A 2.07 2.06 6.2 0 1 284.05 293.86
  L 283.72 312.66
  Q 283.67 315.00 281.34 315.03
  L 276.38 315.08
  Q 273.91 315.11 273.84 312.64
  L 273.67 306.15
  A 1.11 1.11 0.0 0 0 273.07 305.20
  Z"
/>
<path fill="#8cc540" d="
  M 332.45 305.90
  A 1.07 1.07 0.0 0 0 330.89 306.71
  L 330.14 312.99
  Q 329.92 314.88 328.02 315.01
  L 322.31 315.38
  Q 320.36 315.51 320.34 313.56
  L 320.09 292.27
  A 1.02 1.02 0.0 0 1 321.09 291.24
  C 326.53 291.13 333.70 290.62 339.12 292.12
  C 344.35 293.57 345.80 298.17 342.76 302.71
  A 2.56 2.55 46.2 0 0 342.71 305.47
  Q 345.19 309.49 346.16 314.08
  A 0.91 0.90 -6.0 0 1 345.28 315.16
  L 337.84 315.17
  Q 336.76 315.17 336.46 314.14
  C 335.59 311.13 335.47 307.52 332.45 305.90
  Z
  M 334.64 297.06
  A 1.42 1.42 0.0 0 0 333.00 295.74
  L 331.86 295.91
  A 1.42 1.42 0.0 0 0 330.66 297.31
  L 330.65 300.64
  A 1.42 1.42 0.0 0 0 333.08 301.63
  L 334.35 300.34
  A 1.42 1.42 0.0 0 0 334.76 299.27
  L 334.64 297.06
  Z"
/>
<path fill="#8cc540" d="
  M 213.65 356.71
  Q 213.38 356.91 213.37 357.75
  Q 213.30 365.88 213.11 373.99
  Q 213.06 375.95 212.54 377.29
  A 1.09 1.08 8.6 0 1 211.61 377.97
  Q 203.27 378.63 194.95 377.81
  A 1.24 1.22 -5.7 0 1 193.89 376.95
  Q 193.43 375.43 193.39 373.50
  Q 192.92 354.15 193.36 334.60
  Q 193.38 333.46 194.52 333.42
  L 211.32 332.84
  Q 212.41 332.80 213.13 333.61
  L 219.89 341.19
  Q 221.58 343.08 223.19 341.12
  C 225.37 338.49 228.94 332.92 232.75 332.95
  Q 239.95 333.01 247.83 333.28
  A 1.91 1.91 0.0 0 1 249.68 335.19
  L 249.69 376.05
  A 1.85 1.84 -5.5 0 1 248.19 377.86
  C 244.04 378.64 239.32 378.28 232.75 378.22
  Q 231.35 378.21 230.30 377.78
  Q 229.81 377.58 229.69 377.06
  C 229.02 374.28 229.40 371.52 229.42 369.16
  Q 229.45 363.55 229.89 357.90
  A 0.79 0.77 9.9 0 0 229.31 357.09
  C 227.04 356.46 224.17 360.24 222.77 361.68
  A 1.58 1.58 0.0 0 1 220.55 361.72
  L 215.44 356.81
  A 1.39 1.38 -41.7 0 0 213.65 356.71
  Z"
/>
<path fill="#8cc540" d="
  M 63.08 371.24
  C 62.35 373.16 61.55 376.17 59.92 377.58
  Q 59.56 377.89 59.09 377.89
  L 42.39 377.99
  A 0.95 0.93 -88.3 0 1 41.45 376.98
  C 41.53 375.95 41.66 374.51 42.05 373.47
  Q 49.50 353.85 56.26 334.39
  A 2.06 2.04 -80.3 0 1 58.21 333.00
  L 83.81 333.04
  A 2.67 2.67 0.0 0 1 86.33 334.82
  L 101.30 377.10
  Q 101.58 377.89 100.74 377.92
  Q 92.39 378.17 83.75 378.07
  C 80.76 378.04 80.21 373.70 79.63 371.66
  A 1.70 1.68 86.2 0 0 78.26 370.45
  Q 71.35 369.41 64.40 370.22
  A 1.64 1.62 6.9 0 0 63.08 371.24
  Z
  M 67.83 358.45
  A 1.49 1.49 0.0 0 0 69.28 360.30
  L 73.78 360.28
  A 1.49 1.49 0.0 0 0 75.18 358.30
  L 72.56 350.71
  A 1.49 1.49 0.0 0 0 69.71 350.84
  L 67.83 358.45
  Z"
/>
<path fill="#8cc540" d="
  M 132.55 346.05
  Q 132.76 345.85 132.83 345.35
  Q 133.48 340.30 133.22 334.81
  A 1.59 1.58 -1.6 0 1 134.80 333.15
  L 151.67 333.06
  Q 153.32 333.05 153.33 334.70
  Q 153.43 353.58 153.33 372.25
  Q 153.31 374.76 153.08 377.01
  A 1.34 1.34 0.0 0 1 151.91 378.20
  Q 146.77 378.84 141.52 378.33
  C 137.98 377.99 136.01 375.95 134.34 373.11
  Q 131.99 369.11 129.45 365.38
  A 0.94 0.94 0.0 0 0 127.74 365.84
  L 127.06 376.59
  A 1.75 1.74 -87.9 0 1 125.30 378.23
  L 109.51 378.02
  Q 107.28 377.99 107.29 375.76
  L 107.35 334.31
  A 1.09 1.09 0.0 0 1 108.43 333.22
  L 119.89 333.06
  A 3.17 3.15 72.7 0 1 122.58 334.48
  C 125.31 338.60 127.96 342.53 131.66 346.07
  A 0.66 0.64 -45.3 0 0 132.55 346.05
  Z"
/>
<path fill="#8cc540" d="
  M 181.47 333.22
  A 1.78 1.78 0.0 0 1 183.25 335.00
  L 183.25 374.08
  A 4.08 2.93 90.0 0 1 180.32 378.16
  L 166.14 378.16
  A 4.08 2.93 90.0 0 1 163.21 374.08
  L 163.21 335.00
  A 1.78 1.78 0.0 0 1 164.99 333.22
  L 181.47 333.22
  Z"
/>
<path fill="#8cc540" d="
  M 293.27 370.76
  C 288.58 369.86 284.49 370.19 279.75 370.30
  C 277.01 370.36 276.45 374.40 275.76 376.45
  A 2.17 2.15 6.8 0 1 273.89 377.91
  Q 265.28 378.63 256.68 377.94
  Q 256.12 377.90 256.19 377.35
  Q 256.55 374.36 257.57 371.53
  Q 263.89 353.88 270.68 335.20
  Q 271.47 333.03 273.78 333.02
  L 298.20 332.97
  A 3.08 3.07 -9.2 0 1 301.12 335.07
  Q 307.40 354.05 314.66 373.25
  C 315.07 374.32 315.20 375.76 315.48 376.90
  Q 315.62 377.44 315.07 377.54
  Q 306.28 379.05 297.39 377.87
  A 1.68 1.67 83.1 0 1 296.05 376.81
  L 293.91 371.29
  A 0.88 0.87 84.1 0 0 293.27 370.76
  Z
  M 283.05 360.21
  L 288.36 360.38
  A 0.33 0.33 0.0 0 0 288.70 360.06
  L 288.71 359.81
  A 9.90 2.93 -88.2 0 0 286.09 349.82
  L 285.97 349.82
  A 9.90 2.93 -88.2 0 0 282.74 359.62
  L 282.73 359.87
  A 0.33 0.33 0.0 0 0 283.05 360.21
  Z"
/>
<path fill="#8cc540" d="
  M 342.40 367.00
  A 0.54 0.53 83.7 0 0 342.97 367.46
  C 347.80 367.10 355.16 366.48 359.73 367.95
  A 0.95 0.94 11.1 0 1 360.38 368.91
  L 359.90 376.37
  A 1.15 1.14 -2.5 0 1 358.93 377.42
  Q 354.02 378.16 349.00 378.10
  C 340.57 378.02 332.23 378.32 323.79 377.81
  A 1.64 1.62 -7.9 0 1 322.36 376.74
  Q 321.73 375.05 321.79 372.75
  Q 322.31 353.51 321.77 334.39
  A 1.12 1.12 0.0 0 1 322.87 333.24
  C 328.11 333.17 335.65 332.43 340.56 333.94
  A 1.18 1.18 0.0 0 1 341.40 335.06
  C 341.53 345.83 341.04 356.92 342.40 367.00
  Z"
/>
</svg>
